<svg xmlns="http://www.w3.org/2000/svg" viewBox="0 0 200 200" fill="none">
  <defs>
    <!-- Main Gradient -->
    <linearGradient id="mainGrad" x1="0%" y1="0%" x2="100%" y2="100%">
      <stop offset="0%" style="stop-color:#9146FF;stop-opacity:1" />
      <stop offset="100%" style="stop-color:#6D28D9;stop-opacity:1" />
    </linearGradient>

    <!-- Subtle Radial Gradient for depth -->
    <radialGradient id="radialGrad" cx="50%" cy="40%" r="60%">
      <stop offset="0%" style="stop-color:#A855F7;stop-opacity:0.4" />
      <stop offset="100%" style="stop-color:#9146FF;stop-opacity:0" />
    </radialGradient>

    <!-- Glow Effect -->
    <filter id="glow">
      <feGaussianBlur stdDeviation="3" result="coloredBlur"/>
      <feMerge>
        <feMergeNode in="coloredBlur"/>
        <feMergeNode in="SourceGraphic"/>
      </feMerge>
    </filter>

    <!-- Soft Shadow -->
    <filter id="softShadow">
      <feGaussianBlur in="SourceAlpha" stdDeviation="2"/>
      <feOffset dx="0" dy="2" result="offsetblur"/>
      <feComponentTransfer>
        <feFuncA type="linear" slope="0.3"/>
      </feComponentTransfer>
      <feMerge>
        <feMergeNode/>
        <feMergeNode in="SourceGraphic"/>
      </feMerge>
    </filter>
  </defs>

  <!-- Background Circle -->
  <circle cx="100" cy="100" r="92" fill="url(#mainGrad)"/>
  <circle cx="100" cy="100" r="92" fill="url(#radialGrad)"/>

  <!-- Outer Ring (Watch/Monitor Circle) -->
  <circle cx="100" cy="100" r="75" fill="none" stroke="#FFFFFF" stroke-width="2.5" opacity="0.2"/>
  <circle cx="100" cy="100" r="68" fill="none" stroke="#FFFFFF" stroke-width="1.5" opacity="0.15"/>

  <!-- Chat Bubble (Top) - More refined shape -->
  <path d="M 58 75 Q 58 55 75 55 L 125 55 Q 142 55 142 75 L 142 100 Q 142 117 125 117 L 88 117 L 72 132 L 72 117 Q 58 117 58 100 Z"
        fill="#FFFFFF"
        opacity="0.96"
        filter="url(#softShadow)"/>

  <!-- Chat Lines - Varied lengths for realism -->
  <line x1="72" y1="72" x2="115" y2="72" stroke="#9146FF" stroke-width="3.5" stroke-linecap="round" opacity="0.9"/>
  <line x1="72" y1="83" x2="128" y2="83" stroke="#9146FF" stroke-width="3.5" stroke-linecap="round" opacity="0.9"/>
  <line x1="72" y1="94" x2="102" y2="94" stroke="#9146FF" stroke-width="3.5" stroke-linecap="round" opacity="0.9"/>
  <line x1="72" y1="105" x2="118" y2="105" stroke="#9146FF" stroke-width="3.5" stroke-linecap="round" opacity="0.7"/>

  <!-- Eye/Watch Symbol (Bottom) - More refined -->
  <ellipse cx="100" cy="152" rx="38" ry="22" fill="#FFFFFF" opacity="0.96" filter="url(#softShadow)"/>

  <!-- Eye Details -->
  <ellipse cx="100" cy="152" rx="34" ry="18" fill="none" stroke="#E9D5FF" stroke-width="1" opacity="0.4"/>

  <!-- Iris with gradient -->
  <defs>
    <radialGradient id="irisGrad" cx="50%" cy="50%" r="50%">
      <stop offset="0%" style="stop-color:#A78BFA;stop-opacity:1" />
      <stop offset="70%" style="stop-color:#9146FF;stop-opacity:1" />
      <stop offset="100%" style="stop-color:#7C3AED;stop-opacity:1" />
    </radialGradient>
  </defs>
  <circle cx="100" cy="152" r="15" fill="url(#irisGrad)"/>

  <!-- Pupil with highlight -->
  <circle cx="100" cy="152" r="8" fill="#1a0033"/>
  <circle cx="104" cy="148" r="3.5" fill="#FFFFFF" opacity="0.95"/>
  <circle cx="102" cy="150" r="1.5" fill="#FFFFFF" opacity="0.6"/>

  <!-- Subtle Cat Whiskers (More refined) -->
  <line x1="64" y1="150" x2="42" y2="145" stroke="#FFFFFF" stroke-width="2" stroke-linecap="round" opacity="0.35"/>
  <line x1="64" y1="154" x2="40" y2="154" stroke="#FFFFFF" stroke-width="2" stroke-linecap="round" opacity="0.3"/>
  <line x1="64" y1="158" x2="42" y2="163" stroke="#FFFFFF" stroke-width="2" stroke-linecap="round" opacity="0.25"/>

  <line x1="136" y1="150" x2="158" y2="145" stroke="#FFFFFF" stroke-width="2" stroke-linecap="round" opacity="0.35"/>
  <line x1="136" y1="154" x2="160" y2="154" stroke="#FFFFFF" stroke-width="2" stroke-linecap="round" opacity="0.3"/>
  <line x1="136" y1="158" x2="158" y2="163" stroke="#FFFFFF" stroke-width="2" stroke-linecap="round" opacity="0.25"/>

  <!-- Connection Line (Visual link between chat and watch) -->
  <line x1="100" y1="132" x2="100" y2="135" stroke="#FFFFFF" stroke-width="2" stroke-linecap="round" opacity="0.2" stroke-dasharray="3,3"/>

  <!-- Tech Accent Elements - Refined positioning -->
  <circle cx="100" cy="22" r="3" fill="#FFFFFF" opacity="0.5"/>
  <circle cx="178" cy="100" r="2.5" fill="#FFFFFF" opacity="0.4"/>
  <circle cx="22" cy="100" r="2.5" fill="#FFFFFF" opacity="0.4"/>
  <circle cx="155" cy="55" r="2" fill="#FFFFFF" opacity="0.35"/>
  <circle cx="45" cy="55" r="2" fill="#FFFFFF" opacity="0.35"/>

  <!-- Subtle corner accents -->
  <path d="M 20 30 L 20 20 L 30 20" stroke="#FFFFFF" stroke-width="1.5" stroke-linecap="round" opacity="0.25" fill="none"/>
  <path d="M 180 30 L 180 20 L 170 20" stroke="#FFFFFF" stroke-width="1.5" stroke-linecap="round" opacity="0.25" fill="none"/>
  <path d="M 20 170 L 20 180 L 30 180" stroke="#FFFFFF" stroke-width="1.5" stroke-linecap="round" opacity="0.25" fill="none"/>
  <path d="M 180 170 L 180 180 L 170 180" stroke="#FFFFFF" stroke-width="1.5" stroke-linecap="round" opacity="0.25" fill="none"/>
</svg>
